<svg id="Layer_1" data-name="Layer 1" xmlns="http://www.w3.org/2000/svg" viewBox="0 0 216 216"><defs><style>.cls-1{fill:#83c197;stroke:#84c198;stroke-miterlimit:10;}</style></defs><path class="cls-1" d="M199.41,158.44c-3-3.54-20.14-7.36-20.32-7.39-4.53-1-12.83-3.87-16.81-5.24l-.83-.29-1.93-.68c-4.1-1.46-11-3.91-16.41-4.5-1.78-.19-3.51-.35-5.16-.5-4.12-.37-7.69-.69-9.65-1.4-2.81-1-12.42-6.68-14.17-12.44a65.27,65.27,0,0,1-2.34-15.56v-.1c0-.13-1.82-13.33-2.48-27.64-.7-15.16,2.34-27.82,8.12-33.87a13,13,0,0,1,9.65-4.22,27,27,0,0,1,8.23,1.79l.6.2,5.51-10.44-.82-.29a27.79,27.79,0,0,0-10.09-1.64h-.05c-11.73,0-15.19,4.6-20.93,12.22l-.48.64V35.83H98.42v75l-.71,16.45v2.09c0,1.82-.62,6.94-2.54,8.74l-.2.18c-2.39,2.24-3.6,3.37-10.18,4.66-3.64.72-7.85,1.31-11.93,1.87-3.72.52-7.23,1-10,1.56-5.58,1.09-14.19,3.53-18.37,5.55-3.86,1.88-16.07,8.69-17.13,9.75a.88.88,0,0,0-.23,1.15c.42.69,1.09.48,3.94-.44,1-.32,2.1-.68,3.08-.94s2.6-.75,4.65-1.37c4.8-1.44,11.36-3.41,14-3.88a120.27,120.27,0,0,1,16.45-1.58c1.26,0,2.67,0,4.15.06a83.33,83.33,0,0,0,12.42-.3c1.5-.21,3.28-.49,5.11-.78,4.17-.67,8.89-1.43,10.73-1.28,2.31.2,9.21,2.53,14.9,4.65,4.11,1.53,11.56,4.16,15,5.27,1.86.6,4.28,1.14,6.85,1.71s5.05,1.13,7.58,1.84,4.65,1.24,6.54,1.7c2.09.52,3.9,1,5.56,1.5s3.27.91,4.89,1.3,3.39.81,4.94,1.32a32,32,0,0,0,4.54,1.1,40.38,40.38,0,0,1,4.29,1,13.12,13.12,0,0,0,3.2.68c.58,0,.87-.18,1-.54.38-.8-.49-1.48-1.67-2.28-2.88-2-17.15-8-20.62-8.69-3.11-.64-10.4-3.75-12.81-5.07s-8.36-2.61-12.69-3.51c-3.24-.66-5.43-1.92-5.91-2.82a.52.52,0,0,1-.06-.51c.45-1.14,1.52-1.92,5.27-2a75.84,75.84,0,0,1,11.54.79c3.16.43,12.91,3.1,15.44,3.86,2.88.88,20.4,3.45,26.2,4.15,1.6.19,4,.76,6.31,1.31,5.67,1.35,7,1.57,7.59.7A1.05,1.05,0,0,0,199.41,158.44Z"/></svg>